<?xml version="1.0" standalone="no"?>
<!DOCTYPE svg PUBLIC "-//W3C//DTD SVG 20010904//EN"
 "http://www.w3.org/TR/2001/REC-SVG-20010904/DTD/svg10.dtd">
<svg version="1.0" xmlns="http://www.w3.org/2000/svg"
 width="278.000000pt" height="174.000000pt" viewBox="0 0 278.000000 174.000000"
 preserveAspectRatio="xMidYMid meet">

<g transform="translate(0.000000,174.000000) scale(0.100000,-0.100000)"
fill="#053bb0" stroke="none">
<path d="M1035 1598 c-3 -7 -6 -101 -8 -208 l-2 -195 -73 -5 c-67 -5 -91 -15
-92 -41 0 -21 35 -31 97 -28 l68 4 2 -410 c1 -226 2 -415 3 -421 0 -18 31 -26
46 -13 12 9 14 87 14 430 l0 419 23 5 c12 2 60 14 106 25 46 11 87 20 91 20 4
0 10 -23 12 -51 5 -53 26 -89 71 -123 44 -33 156 -29 230 8 l57 28 46 -22 c91
-45 284 -9 300 55 12 46 -23 61 -61 25 -25 -24 -124 -44 -171 -35 -19 3 -47
17 -64 31 -27 23 -30 31 -30 85 0 72 23 133 61 160 37 26 59 27 102 4 71 -38
95 16 27 61 -33 22 -48 26 -86 21 -98 -11 -166 -105 -170 -236 -1 -42 -5 -84
-9 -93 -16 -41 -158 -64 -202 -33 -23 16 -43 70 -43 116 0 19 10 32 37 50 55
35 95 98 101 157 4 44 2 51 -24 71 -69 54 -156 -23 -171 -150 -4 -34 -12 -53
-25 -60 -16 -8 -178 -48 -200 -49 -4 0 -9 91 -10 203 -3 201 -3 202 -26 205
-12 2 -24 -3 -27 -10z m389 -271 c-16 -24 -29 -36 -32 -29 -7 21 6 56 30 88
23 28 23 28 26 6 2 -14 -8 -42 -24 -65z"/>
<path d="M2034 1559 c-20 -33 26 -491 52 -519 23 -24 47 0 60 61 6 30 18 68
26 84 27 51 93 101 115 87 27 -18 55 -107 68 -215 6 -43 12 -60 27 -68 16 -8
24 -7 36 5 14 14 14 26 -6 126 -33 164 -68 220 -138 220 -34 0 -97 -38 -130
-78 -12 -15 -23 -21 -27 -15 -4 6 -11 77 -16 158 -9 146 -14 164 -48 165 -6 0
-15 -5 -19 -11z"/>
<path d="M143 1316 l-28 -24 -3 -401 c-2 -277 1 -407 8 -422 6 -11 26 -29 43
-39 30 -18 52 -20 299 -20 147 0 278 4 292 10 54 20 56 32 56 341 1 156 -3
296 -7 310 -4 15 -60 81 -123 148 l-116 121 -196 0 c-194 0 -197 0 -225 -24z
m367 -123 c0 -38 6 -79 13 -93 19 -38 72 -60 144 -60 l61 0 7 -62 c3 -35 5
-157 3 -273 l-3 -210 -264 -3 c-199 -2 -267 1 -279 10 -13 11 -14 49 -8 283 3
148 6 316 6 373 l0 102 160 0 160 0 0 -67z m158 -78 c-3 -3 -21 -2 -39 3 -30
7 -35 13 -40 51 l-6 42 46 -45 c25 -25 42 -48 39 -51z"/>
<path d="M217 1234 c-19 -20 5 -24 134 -24 108 0 140 3 137 13 -5 13 -258 24
-271 11z"/>
<path d="M212 1158 c4 -10 39 -13 141 -13 189 0 187 19 -1 23 -113 2 -143 0
-140 -10z"/>
<path d="M224 1089 c-13 -22 23 -29 141 -27 105 3 120 5 123 21 3 15 -8 17
-127 17 -84 0 -132 -4 -137 -11z"/>
<path d="M213 1008 c3 -10 60 -13 242 -13 182 0 239 3 243 13 3 9 -50 12 -243
12 -193 0 -246 -3 -242 -12z"/>
<path d="M230 925 c0 -13 34 -15 245 -15 211 0 245 2 245 15 0 13 -34 15 -245
15 -211 0 -245 -2 -245 -15z"/>
<path d="M217 864 c-21 -21 16 -24 251 -22 165 2 256 7 255 13 -3 11 -495 20
-506 9z"/>
<path d="M210 775 c0 -13 34 -15 256 -15 200 0 255 3 252 13 -4 9 -66 13 -256
15 -220 2 -252 0 -252 -13z"/>
<path d="M215 699 c-4 -6 -5 -12 -3 -14 2 -3 114 -5 249 -5 214 -1 244 0 247
14 3 14 -24 16 -242 16 -163 0 -247 -4 -251 -11z"/>
<path d="M220 615 c0 -13 33 -15 240 -15 207 0 240 2 240 15 0 13 -33 15 -240
15 -207 0 -240 -2 -240 -15z"/>
<path d="M212 528 c4 -10 64 -14 246 -16 211 -2 242 0 242 13 0 13 -33 15
-246 15 -192 0 -245 -3 -242 -12z"/>
<path d="M1172 918 c-20 -20 -14 -47 13 -54 27 -7 30 -17 40 -139 3 -38 11
-97 17 -130 6 -33 13 -99 17 -147 l6 -87 -28 2 c-41 3 -58 -25 -32 -53 17 -19
27 -21 67 -16 60 8 142 50 189 97 78 78 108 207 75 322 -30 103 -141 188 -273
207 -85 12 -77 12 -91 -2z m176 -92 c55 -28 106 -79 122 -121 7 -16 12 -58 12
-92 1 -93 -40 -164 -124 -218 l-28 -17 0 43 c0 24 -9 98 -19 164 -26 164 -34
265 -21 265 6 0 32 -11 58 -24z"/>
<path d="M2215 879 c-32 -18 -45 -40 -45 -76 0 -45 45 -93 125 -133 112 -56
201 -159 207 -241 3 -32 1 -34 -30 -37 -40 -4 -90 27 -151 94 -44 48 -65 55
-81 24 -10 -18 -3 -29 51 -85 93 -97 170 -126 239 -90 17 9 33 27 36 41 10 38
-3 108 -27 157 -31 59 -135 157 -205 191 -72 35 -94 53 -94 79 0 18 5 19 44
14 24 -4 65 -16 90 -29 42 -20 48 -21 62 -6 12 12 13 20 5 35 -22 43 -183 86
-226 62z"/>
<path d="M1635 864 c-16 -8 -33 -19 -38 -23 -16 -16 -36 -221 -27 -277 23
-140 131 -244 215 -206 69 32 106 264 64 399 -5 17 -32 52 -59 77 -41 38 -56
46 -87 46 -21 0 -51 -7 -68 -16z m109 -75 c20 -17 40 -47 46 -67 22 -82 2
-275 -32 -296 -25 -15 -65 11 -96 63 -22 37 -26 57 -27 120 0 122 13 191 38
201 32 13 33 13 71 -21z"/>
<path d="M1945 856 c-62 -62 -76 -138 -55 -305 17 -133 59 -194 143 -206 89
-14 171 48 165 122 -3 33 -6 38 -28 38 -20 0 -26 -6 -28 -27 -4 -35 -46 -68
-86 -68 -63 0 -83 33 -101 166 -15 115 -10 164 20 210 13 20 23 25 43 21 15
-3 35 -7 46 -9 10 -2 23 5 29 14 18 27 -20 59 -76 65 -39 5 -49 2 -72 -21z"/>
</g>
</svg>
