<svg xmlns="http://www.w3.org/2000/svg" xmlns:xlink="http://www.w3.org/1999/xlink" width="132" zoomAndPan="magnify" viewBox="0 0 99 42.75" height="57" preserveAspectRatio="xMidYMid meet" version="1.0"><defs><clipPath id="d501833073"><path d="M 0.289062 0 L 98.710938 0 L 98.710938 42.5 L 0.289062 42.5 Z M 0.289062 0 " clip-rule="nonzero"/></clipPath><clipPath id="86e44e2413"><path d="M 5.652344 0 L 93.636719 0 L 93.636719 42.3125 L 5.652344 42.3125 Z M 5.652344 0 " clip-rule="nonzero"/></clipPath><clipPath id="787f7cce6d"><path d="M 21 0 L 78.398438 0 L 78.398438 25.425781 L 21 25.425781 Z M 21 0 " clip-rule="nonzero"/></clipPath><clipPath id="e3f1c2502f"><path d="M 32.695312 0 L 66.25 0 L 66.25 12.921875 L 32.695312 12.921875 Z M 32.695312 0 " clip-rule="nonzero"/></clipPath></defs><g clip-path="url(#d501833073)"><path fill="#ffffff" d="M 0.289062 0 L 98.710938 0 L 98.710938 42.5 L 0.289062 42.5 Z M 0.289062 0 " fill-opacity="1" fill-rule="nonzero"/><path fill="#f4f5ff" d="M 0.289062 0 L 98.710938 0 L 98.710938 42.5 L 0.289062 42.5 Z M 0.289062 0 " fill-opacity="1" fill-rule="nonzero"/></g><g clip-path="url(#86e44e2413)"><path fill="#91d8f7" d="M 80.449219 -1.679688 C 80.449219 15.320312 66.640625 29.125 49.640625 29.125 C 32.644531 29.125 18.835938 15.320312 18.835938 -1.679688 L 5.695312 -1.679688 C 5.695312 22.59375 25.367188 42.265625 49.640625 42.265625 C 73.917969 42.265625 93.515625 22.59375 93.515625 -1.679688 Z M 80.449219 -1.679688 " fill-opacity="1" fill-rule="nonzero"/></g><g clip-path="url(#787f7cce6d)"><path fill="#24a9e2" d="M 69.6875 -2.90625 C 69.6875 8.160156 60.695312 17.152344 49.628906 17.152344 C 38.558594 17.152344 29.570312 8.160156 29.570312 -2.90625 L 21.015625 -2.90625 C 21.015625 12.898438 33.824219 25.707031 49.628906 25.707031 C 65.433594 25.707031 78.191406 12.898438 78.191406 -2.90625 Z M 69.6875 -2.90625 " fill-opacity="1" fill-rule="nonzero"/></g><g clip-path="url(#e3f1c2502f)"><path fill="#60d6ea" d="M 61.464844 -4.226562 C 61.464844 2.3125 56.15625 7.625 49.617188 7.625 C 43.078125 7.625 37.765625 2.3125 37.765625 -4.226562 L 32.710938 -4.226562 C 32.710938 5.109375 40.277344 12.679688 49.617188 12.679688 C 58.953125 12.679688 66.492188 5.109375 66.492188 -4.226562 Z M 61.464844 -4.226562 " fill-opacity="1" fill-rule="nonzero"/></g></svg>