<?xml version="1.0" standalone="no"?>
<!DOCTYPE svg PUBLIC "-//W3C//DTD SVG 20010904//EN"
 "http://www.w3.org/TR/2001/REC-SVG-20010904/DTD/svg10.dtd">
<svg version="1.0" xmlns="http://www.w3.org/2000/svg"
 width="387.000000pt" height="234.000000pt" viewBox="0 0 387.000000 234.000000"
 preserveAspectRatio="xMidYMid meet">

<g transform="translate(0.000000,234.000000) scale(0.100000,-0.100000)"
fill="#053bb0" stroke="none">
<path d="M1912 1828 c-8 -8 -12 -74 -12 -209 0 -224 7 -209 -96 -209 -54 0
-79 -16 -69 -43 8 -20 52 -28 115 -20 l50 6 0 -418 c-1 -247 3 -422 9 -428 5
-5 17 -7 27 -5 18 3 19 23 22 430 l2 426 46 7 c26 3 77 15 115 25 l69 18 0
-37 c1 -53 33 -117 72 -141 53 -32 159 -28 232 9 l56 28 47 -23 c104 -53 303
-6 303 71 0 32 -28 40 -55 15 -62 -58 -232 -52 -265 9 -16 32 -11 122 10 168
18 41 68 83 98 83 8 0 27 -9 43 -21 58 -41 93 7 39 53 -39 32 -102 38 -149 14
-73 -38 -125 -145 -120 -245 3 -61 -13 -87 -66 -106 -49 -17 -82 -18 -124 -4
-38 13 -48 30 -56 95 -7 50 -7 50 34 77 82 54 127 181 81 227 -66 66 -180 -44
-180 -173 0 -29 -21 -39 -125 -62 -38 -9 -78 -18 -87 -21 -17 -5 -18 9 -18
195 0 185 -1 201 -18 210 -13 7 -23 6 -30 -1z m408 -223 c0 -14 -13 -39 -31
-57 l-31 -33 6 32 c6 36 33 83 47 83 5 0 9 -11 9 -25z"/>
<path d="M769 1775 c-58 -31 -58 -32 -60 -618 -1 -512 0 -538 18 -569 11 -18
37 -43 59 -55 38 -22 45 -23 407 -23 425 0 425 0 459 77 20 45 20 57 16 432
-3 229 -10 396 -16 411 -14 37 -309 347 -335 354 -12 3 -134 6 -272 5 -197 0
-256 -3 -276 -14z m504 -180 c7 -130 18 -155 75 -178 20 -8 80 -18 134 -22
l96 -7 7 -35 c11 -62 6 -735 -6 -750 -9 -10 -86 -13 -381 -13 l-369 0 -25 26
-26 25 7 527 c4 290 9 530 12 534 2 5 109 8 237 8 l233 0 6 -115z m190 -59
l62 -69 -74 6 c-41 3 -80 12 -87 19 -7 7 -14 47 -16 90 l-3 77 28 -27 c16 -15
57 -58 90 -96z"/>
<path d="M842 1638 c4 -10 53 -14 191 -16 162 -2 187 0 187 13 0 13 -27 15
-191 15 -148 0 -190 -3 -187 -12z"/>
<path d="M1027 1560 c-249 -7 -250 -24 0 -28 176 -2 225 4 198 26 -6 4 -94 5
-198 2z"/>
<path d="M855 1449 c-16 -25 18 -29 191 -27 151 3 179 5 179 18 0 13 -28 15
-182 18 -125 2 -184 -1 -188 -9z"/>
<path d="M840 1335 c0 -13 42 -15 337 -13 258 2 337 6 341 16 3 9 -69 12 -337
12 -298 0 -341 -2 -341 -15z"/>
<path d="M860 1225 c0 -13 45 -15 345 -15 300 0 345 2 345 15 0 13 -45 15
-345 15 -300 0 -345 -2 -345 -15z"/>
<path d="M1182 1132 c-276 -2 -353 -5 -349 -15 3 -9 87 -13 357 -15 195 -1
358 2 362 6 23 23 -40 27 -370 24z"/>
<path d="M833 1008 c6 -19 698 -19 705 0 3 9 -72 12 -353 12 -281 0 -356 -3
-352 -12z"/>
<path d="M840 895 c0 -13 41 -15 345 -13 222 2 345 7 345 13 0 6 -123 11 -345
13 -304 2 -345 0 -345 -13z"/>
<path d="M847 794 c-20 -20 35 -24 339 -24 264 0 335 3 332 13 -4 9 -81 13
-335 15 -181 1 -332 -1 -336 -4z"/>
<path d="M837 674 c-20 -20 35 -24 344 -24 268 0 340 3 337 13 -4 9 -82 13
-340 15 -184 1 -337 -1 -341 -4z"/>
<path d="M2904 1779 c-9 -16 -6 -146 7 -249 36 -286 31 -265 61 -268 23 -3 28
1 34 25 3 15 10 45 16 67 21 85 106 167 142 137 20 -17 44 -97 59 -199 11 -70
14 -77 36 -80 34 -5 51 20 40 61 -4 18 -15 66 -24 107 -23 104 -49 155 -89
174 -46 22 -95 6 -152 -48 -24 -24 -47 -39 -50 -34 -3 5 -8 68 -11 141 -3 72
-10 142 -14 155 -9 23 -43 30 -55 11z"/>
<path d="M2043 1144 c-22 -10 -14 -44 12 -56 29 -13 32 -22 40 -138 4 -47 11
-105 16 -130 6 -24 13 -88 17 -142 l7 -97 -35 2 c-29 2 -36 -2 -38 -19 -7 -52
82 -63 168 -19 69 35 126 89 158 149 24 45 27 62 27 146 0 86 -3 100 -27 142
-37 61 -99 113 -166 138 -55 21 -157 34 -179 24z m175 -93 c92 -48 134 -116
134 -217 -1 -79 -36 -152 -94 -194 -22 -17 -45 -30 -50 -30 -4 0 -8 17 -8 38
0 20 -9 91 -19 157 -10 66 -21 153 -24 193 -7 82 -2 86 61 53z"/>
<path d="M2514 1091 c-23 -10 -45 -24 -49 -31 -16 -26 -33 -212 -25 -270 12
-82 54 -157 109 -192 56 -35 81 -35 120 -2 44 36 64 113 65 244 0 125 -18 178
-82 228 -52 41 -86 47 -138 23z m109 -90 c43 -48 52 -86 44 -201 -6 -93 -27
-160 -50 -160 -23 0 -66 39 -87 79 -27 54 -34 123 -21 216 16 115 51 135 114
66z"/>
<path d="M3066 1087 c-57 -57 -21 -129 94 -191 103 -55 184 -138 205 -211 19
-63 15 -75 -23 -75 -37 0 -81 29 -138 89 -52 55 -77 63 -95 30 -10 -19 -4 -28
55 -86 79 -76 141 -108 195 -98 79 14 100 75 64 180 -21 63 -136 181 -213 220
-62 31 -100 62 -100 82 0 20 69 16 113 -6 59 -30 65 -31 82 -15 35 36 -46 89
-152 100 -57 6 -63 5 -87 -19z"/>
<path d="M2821 1084 c-13 -9 -34 -40 -47 -68 -27 -58 -30 -119 -13 -243 21
-157 65 -207 178 -200 58 3 66 6 97 40 37 40 46 94 20 116 -19 16 -46 3 -46
-23 0 -58 -75 -95 -126 -61 -35 23 -50 63 -63 174 -7 67 -7 107 0 137 13 51
44 88 68 79 42 -16 68 -17 74 -1 21 54 -84 90 -142 50z"/>
</g>
</svg>
